<?xml version="1.0" standalone="no"?>
<!DOCTYPE svg PUBLIC "-//W3C//DTD SVG 20010904//EN"
 "http://www.w3.org/TR/2001/REC-SVG-20010904/DTD/svg10.dtd">
<svg version="1.0" xmlns="http://www.w3.org/2000/svg"
 width="512.000000pt" height="512.000000pt" viewBox="0 0 512.000000 512.000000"
 preserveAspectRatio="xMidYMid meet">

<g transform="translate(0.000000,512.000000) scale(0.100000,-0.100000)"
fill="#000000" stroke="none">
<path d="M1855 5110 c-140 -22 -293 -81 -418 -163 -252 -164 -420 -423 -467
-719 -18 -111 -8 -321 20 -423 44 -164 145 -348 240 -440 37 -36 46 -40 90
-40 l50 0 259 259 c142 142 261 254 264 249 3 -5 10 -61 16 -124 20 -238 -19
-455 -132 -714 -70 -164 -78 -228 -28 -254 52 -28 98 0 121 74 7 22 36 99 65
170 95 234 126 384 126 610 0 169 -15 278 -61 427 -17 54 -33 104 -36 113 -5
13 55 15 555 15 460 0 561 -2 561 -13 0 -8 -25 -134 -55 -281 -30 -147 -55
-268 -55 -270 0 -2 -36 -20 -80 -40 -156 -71 -305 -90 -499 -64 -141 18 -172
-8 -202 -176 -23 -127 -64 -258 -125 -401 -76 -179 -105 -349 -84 -508 48
-387 310 -687 700 -803 54 -16 95 -19 240 -18 162 0 182 2 265 28 352 107 609
397 666 750 16 105 7 300 -20 394 -26 89 -106 270 -131 296 -42 43 -120 10
-120 -51 0 -13 20 -71 45 -129 72 -163 88 -244 83 -394 -4 -106 -10 -138 -35
-212 -116 -334 -404 -538 -759 -538 -226 0 -419 83 -575 247 -160 168 -240
407 -210 628 13 94 29 145 87 281 52 124 90 245 113 367 14 67 22 91 32 88 8
-2 73 -6 144 -8 143 -6 241 8 361 51 35 13 64 22 64 21 0 -1 -47 -231 -105
-511 -58 -279 -105 -519 -105 -531 0 -59 90 -86 127 -39 14 17 49 168 122 527
57 277 110 534 118 571 l15 68 82 26 c54 18 112 28 177 31 l95 6 13 -114 c13
-123 27 -157 75 -173 21 -8 32 -6 54 11 31 23 32 45 17 228 -9 109 -20 142
-62 175 -27 21 -35 22 -168 17 -78 -3 -163 -12 -192 -20 -29 -8 -53 -11 -53
-6 0 12 89 449 96 472 5 16 29 17 310 17 167 0 304 -3 304 -7 0 -5 -12 -44
-26 -87 -81 -256 -84 -579 -8 -844 14 -48 49 -143 78 -212 101 -235 122 -338
113 -548 -4 -103 -12 -160 -31 -230 -105 -381 -403 -672 -791 -774 -99 -26
-338 -36 -441 -19 -376 63 -699 319 -840 666 -35 86 -68 226 -80 338 -7 67
-29 97 -73 97 -16 0 -39 -9 -52 -19 -22 -17 -24 -26 -21 -88 13 -360 227 -733
542 -944 123 -83 313 -164 433 -185 l37 -6 -2 -422 -3 -421 -235 -120 c-158
-81 -241 -129 -254 -148 -38 -53 -16 -133 45 -164 18 -10 179 -13 679 -13 637
0 656 1 688 20 18 11 37 32 43 48 14 36 5 99 -17 123 -10 11 -122 72 -249 136
-126 64 -233 121 -237 127 -4 6 -8 195 -8 419 0 317 3 408 13 412 6 2 55 15
107 30 122 33 295 117 396 193 323 242 504 598 504 996 0 197 -27 316 -121
538 -103 243 -136 408 -126 638 6 148 23 241 68 371 40 118 39 159 -5 207
l-34 37 -336 3 c-185 1 -336 6 -336 10 1 34 60 265 73 285 9 14 141 110 293
213 186 127 279 196 285 212 22 57 -33 117 -88 96 -40 -16 -531 -350 -576
-393 -57 -53 -73 -93 -108 -265 l-32 -156 -384 0 -384 0 200 198 c176 173 201
202 207 237 10 56 -16 98 -106 167 -101 78 -252 152 -375 184 -112 28 -314 40
-420 24z m381 -170 c96 -25 230 -87 303 -142 l53 -40 -228 -229 c-216 -216
-231 -229 -266 -229 -36 0 -37 1 -43 43 -12 87 -65 580 -65 604 l0 26 83 -6
c46 -4 119 -16 163 -27z m-367 -287 c18 -164 35 -310 38 -325 4 -20 1 -28 -8
-28 -8 0 -117 103 -243 229 l-229 229 49 36 c91 66 286 155 345 156 13 0 21
-49 48 -297z m-81 -478 c-3 -3 -149 10 -323 29 -175 20 -321 36 -326 36 -41 0
57 244 143 359 l40 53 236 -235 c130 -130 233 -239 230 -242z m-300 -124 c189
-21 345 -40 347 -43 2 -2 -113 -121 -255 -263 l-260 -260 -24 30 c-105 129
-186 355 -186 516 0 50 3 59 18 59 9 0 171 -18 360 -39z m1504 -3210 l3 -429
30 -44 c26 -37 53 -55 200 -130 l170 -87 -475 0 -475 0 169 86 c153 79 171 91
197 132 l29 45 0 421 c0 232 3 425 7 428 3 4 37 7 74 7 l68 0 3 -429z"/>
</g>
</svg>
